Coordinates
version=1
nRows=12
nColumns=63
inDegrees=yes

Units are S.I. units (second, meters, Newtons, ...)
If the header above contains a line with 'inDegrees', this indicates whether rotational values are in degrees (yes) or radians (no).

endheader
time	pelvis_tilt	pelvis_list	pelvis_rotation	pelvis_tx	pelvis_ty	pelvis_tz	hip_flexion_r	hip_adduction_r	hip_rotation_r	knee_angle_r	knee_angle_r_beta	ankle_angle_r	subtalar_angle_r	mtp_angle_r	hip_flexion_l	hip_adduction_l	hip_rotation_l	knee_angle_l	knee_angle_l_beta	ankle_angle_l	subtalar_angle_l	mtp_angle_l	L5_S1_Flex_Ext	L5_S1_Lat_Bending	L5_S1_axial_rotation	L4_L5_Flex_Ext	L4_L5_Lat_Bending	L4_L5_axial_rotation	L3_L4_Flex_Ext	L3_L4_Lat_Bending	L3_L4_axial_rotation	L2_L3_Flex_Ext	L2_L3_Lat_Bending	L2_L3_axial_rotation	L1_L2_Flex_Ext	L1_L2_Lat_Bending	L1_L2_axial_rotation	L1_T12_Flex_Ext	L1_T12_Lat_Bending	L1_T12_axial_rotation	Abs_r3	Abs_r2	Abs_r1	Abs_t1	Abs_t2	neck_flexion	neck_bending	neck_rotation	arm_flex_r	arm_add_r	arm_rot_r	elbow_flex_r	pro_sup_r	wrist_flex_r	wrist_dev_r	arm_flex_l	arm_add_l	arm_rot_l	elbow_flex_l	pro_sup_l	wrist_flex_l	wrist_dev_l
5.800000	-2.856454	-6.167671	66.229130	0.264304	0.436722	0.918317	-0.615047	1.023304	4.022532	5.434986	0.094858	16.495434	2.576992	0.000000	2.885533	-4.065290	-22.998534	14.212354	0.248052	26.828511	15.092706	0.000000	-1.179741	0.911472	-0.083428	-2.190897	1.212258	-0.088643	-1.938197	2.216154	-0.088643	-1.348326	2.216154	-0.073000	-1.095508	1.858675	-0.067786	-0.674104	1.411871	-0.062571	-8.426772	10.310758	-0.464003	0.000000	0.000000	-15.950539	5.389473	-7.939210	-15.479851	-21.701722	4.717480	65.463288	86.576028	-12.308595	10.715887	-3.663861	-15.728157	32.224416	51.810170	86.109492	-14.262345	8.840597
5.822222	-2.834202	-7.274363	66.934727	0.256888	0.435763	0.922880	1.446120	1.120227	1.767470	6.636010	0.115820	17.210261	4.364445	0.000000	5.127696	-4.429016	-22.491533	15.573581	0.271810	27.134876	14.949871	0.000000	-1.227731	1.002028	-0.158264	-2.280019	1.332698	-0.168155	-2.017039	2.436331	-0.168155	-1.403174	2.436331	-0.138481	-1.140071	2.043336	-0.128589	-0.701525	1.552142	-0.118698	-8.769560	11.335144	-0.880214	0.000000	0.000000	-16.696153	5.795673	-8.975738	-15.641875	-22.887750	5.555173	64.504855	86.581504	-12.991454	9.953546	-3.011663	-15.437898	32.131892	52.224507	86.565193	-14.309295	9.450353
5.844444	-2.783935	-8.412246	67.780889	0.248891	0.434672	0.927030	3.555230	1.170192	-0.548670	7.927583	0.138362	17.949509	6.080332	0.000000	7.409028	-4.735548	-21.742391	16.930663	0.295496	27.444196	14.703266	0.000000	-1.270207	1.100231	-0.253242	-2.358901	1.463307	-0.269069	-2.086823	2.675101	-0.269069	-1.451720	2.675101	-0.221587	-1.179514	2.243590	-0.205759	-0.725796	1.704257	-0.189931	-9.072962	12.446028	-1.408455	0.000000	0.000000	-17.483266	6.146510	-10.070453	-15.827133	-24.180135	6.799393	63.338891	86.687181	-13.842282	8.885911	-2.506478	-15.062819	31.850168	52.660332	87.062368	-14.383867	9.897987
5.866667	-2.716514	-9.524447	68.752546	0.240499	0.433470	0.930528	5.622199	1.154321	-2.865843	9.267931	0.161756	18.725820	7.684576	0.000000	9.634724	-4.953551	-20.742486	18.245454	0.318443	27.760928	14.336249	0.000000	-1.306463	1.200463	-0.375573	-2.426233	1.596615	-0.399047	-2.146388	2.918805	-0.399047	-1.493157	2.918805	-0.328627	-1.213182	2.447983	-0.305153	-0.746513	1.859517	-0.281680	-9.331935	13.579873	-2.088826	0.000000	0.000000	-18.305757	6.457485	-11.183856	-16.212281	-25.485361	8.322788	62.228299	86.883691	-14.703565	7.516175	-2.218966	-14.627798	31.331536	53.105758	87.587915	-14.506141	10.137436
5.888889	-2.630226	-10.569882	69.774988	0.231987	0.432207	0.933177	7.571261	1.070924	-5.077531	10.604661	0.185086	19.525562	9.143466	0.000000	11.698817	-5.069464	-19.562016	19.446261	0.339401	28.078921	13.849424	0.000000	-1.336179	1.300252	-0.511207	-2.481418	1.729336	-0.543157	-2.195208	3.161434	-0.543157	-1.527119	3.161434	-0.447306	-1.240776	2.651475	-0.415355	-0.763493	2.014091	-0.383405	-9.544191	14.708716	-2.843178	0.000000	0.000000	-19.147561	6.768998	-12.309060	-16.997444	-26.628519	9.760328	61.357713	87.155039	-15.376150	5.944732	-2.141849	-14.146918	30.705394	53.454029	88.079972	-14.791097	9.925905
5.911111	-2.536265	-11.493938	70.827474	0.223544	0.430909	0.934750	9.316200	0.908565	-7.142829	11.885108	0.207434	20.364443	10.432059	0.000000	13.510609	-5.066965	-18.220517	20.496977	0.357740	28.403173	13.251463	0.000000	-1.361422	1.396181	-0.666729	-2.528296	1.856921	-0.708400	-2.236680	3.394675	-0.708400	-1.555969	3.394675	-0.583388	-1.264216	2.847093	-0.541717	-0.777916	2.162685	-0.500047	-9.724500	15.793881	-3.708147	0.000000	0.000000	-19.990176	7.086669	-13.409805	-18.198204	-27.508338	10.999048	60.682983	87.389435	-15.846983	4.170209	-2.322958	-13.628112	29.959711	53.703605	88.518410	-15.240986	9.295353
5.933333	-2.431142	-12.252633	71.870844	0.215329	0.429622	0.935100	10.784443	0.666288	-9.111139	13.065554	0.228037	21.260674	11.656205	0.000000	14.983753	-4.947304	-16.799386	21.358092	0.372769	28.731066	12.590124	0.000000	-1.384806	1.488357	-0.836304	-2.571724	1.979515	-0.888573	-2.275098	3.618791	-0.888573	-1.582695	3.618791	-0.731766	-1.285931	3.035057	-0.679497	-0.791278	2.305465	-0.627228	-9.891532	16.836591	-4.651272	0.000000	0.000000	-20.798261	7.359378	-14.488482	-19.771010	-28.062701	11.876976	60.088100	87.561924	-16.195398	2.184418	-2.719615	-13.089146	29.277696	53.807160	88.811048	-15.958425	8.161865
5.955556	-2.364613	-12.816801	72.833662	0.207595	0.428345	0.934124	11.956594	0.314489	-10.838677	14.137452	0.246745	22.197413	12.678596	0.000000	16.062382	-4.669181	-15.335296	21.975341	0.383542	29.016676	11.796872	0.000000	-1.402726	1.568949	-1.011518	-2.605003	2.086702	-1.074738	-2.304539	3.814742	-1.074738	-1.603176	3.814742	-0.885079	-1.302572	3.199400	-0.821859	-0.801518	2.430301	-0.758639	-10.019534	17.748261	-5.625761	0.000000	0.000000	-21.547449	7.589431	-15.513293	-21.654288	-28.257788	12.354973	59.548209	87.691709	-16.581316	-0.041311	-3.334809	-12.549283	28.684242	53.741113	89.026470	-16.958371	6.554767
5.977778	-2.377484	-13.153043	73.649488	0.200608	0.427129	0.931800	12.820943	-0.168414	-12.304360	15.121294	0.263916	23.189753	13.544983	0.000000	16.695234	-4.210041	-13.956813	22.318165	0.389525	29.226979	10.939530	0.000000	-1.414588	1.628934	-1.174189	-2.627032	2.166482	-1.247576	-2.324027	3.960589	-1.247576	-1.616733	3.960589	-1.027416	-1.313587	3.321721	-0.954029	-0.808296	2.523218	-0.880642	-10.104263	18.426822	-6.530488	0.000000	0.000000	-22.224830	7.784580	-16.483290	-23.901704	-28.065611	12.328717	59.286618	87.843443	-16.859835	-2.427565	-4.104575	-12.063661	28.299457	53.480938	89.147377	-18.263299	4.537527
6.000000	-2.517244	-13.247611	74.273541	0.194612	0.426010	0.928173	13.372297	-0.805724	-13.395482	16.004969	0.279339	24.194812	14.121712	0.000000	16.854715	-3.538743	-12.722854	22.341126	0.389926	29.314437	10.030508	0.000000	-1.419029	1.657827	-1.308584	-2.635278	2.204910	-1.390370	-2.331322	4.030840	-1.390370	-1.621808	4.030840	-1.145011	-1.317710	3.380641	-1.063224	-0.810833	2.567974	-0.981438	-10.135981	18.753670	-7.277952	0.000000	0.000000	-22.845787	8.004813	-17.367562	-26.650151	-27.522642	11.777837	59.665826	87.999736	-17.004010	-4.960936	-4.987476	-11.709175	28.152107	53.067052	89.185564	-19.843438	2.272465
6.022222	-2.767497	-13.124566	74.679851	0.189609	0.424988	0.923425	13.656297	-1.559972	-14.220194	16.830476	0.293747	25.250899	14.617167	0.000000	16.576655	-2.703261	-11.716303	22.081143	0.385389	29.302062	9.137257	0.000000	-1.417412	1.656771	-1.404459	-2.632275	2.203505	-1.492237	-2.328665	4.028272	-1.492237	-1.619960	4.028272	-1.228901	-1.316208	3.378486	-1.141123	-0.809909	2.566338	-1.053344	-10.124429	18.741719	-7.811178	0.000000	0.000000	-23.395046	8.213202	-18.119995	-30.017707	-26.758862	10.617709	61.151662	88.175577	-16.739253	-7.471061	-5.955464	-11.491484	28.132100	52.589819	89.223506	-21.519286	0.035958
6.044444	-3.099476	-12.802152	74.853599	0.185551	0.424072	0.917725	13.670722	-2.374780	-14.533580	17.558428	0.306452	26.268353	14.716258	0.000000	15.888832	-1.748681	-10.920539	21.561347	0.376316	29.209147	8.224091	0.000000	-1.411635	1.629527	-1.456856	-2.621548	2.167271	-1.547909	-2.319176	3.962032	-1.547909	-1.613358	3.962032	-1.274749	-1.310845	3.322931	-1.183695	-0.806608	2.524137	-1.092642	-10.083170	18.433535	-8.102594	0.000000	0.000000	-23.868812	8.387695	-18.673655	-33.877396	-25.932981	8.988944	64.126867	88.372540	-16.040871	-9.642244	-6.960025	-11.413024	28.204266	52.110293	89.244293	-23.163503	-1.973883
